<svg width="141" height="27" viewBox="0 0 141 27" fill="none" xmlns="http://www.w3.org/2000/svg">
<path d="M140.152 23.4763C140.415 23.3922 140.56 23.1109 140.476 22.8478L139.107 18.5613C139.023 18.2983 138.741 18.1532 138.478 18.2372C138.215 18.3213 138.07 18.6027 138.154 18.8657L139.372 22.6759L135.561 23.8934C135.298 23.9775 135.153 24.2588 135.237 24.5219C135.321 24.7849 135.603 24.93 135.866 24.846L140.152 23.4763ZM1 23C1.23376 23.442 1.23376 23.442 1.23376 23.442C1.23377 23.442 1.23378 23.442 1.2338 23.442C1.23385 23.4419 1.23392 23.4419 1.23403 23.4418C1.23424 23.4417 1.23457 23.4416 1.23502 23.4413C1.23593 23.4408 1.23733 23.4401 1.23921 23.4391C1.24298 23.4371 1.24869 23.4341 1.25632 23.4301C1.27158 23.4221 1.29454 23.41 1.32505 23.394C1.38608 23.362 1.47731 23.3144 1.59759 23.2519C1.83816 23.1271 2.19493 22.9432 2.65864 22.7075C3.58609 22.2361 4.94126 21.5577 6.65018 20.7305L6.21449 19.8304C4.49922 20.6607 3.13823 21.342 2.20556 21.816C1.73921 22.0531 1.37993 22.2383 1.13696 22.3644C1.01548 22.4274 0.923072 22.4757 0.860899 22.5082C0.829813 22.5245 0.806285 22.5369 0.79046 22.5452C0.782547 22.5494 0.77656 22.5526 0.772517 22.5547C0.770495 22.5558 0.76896 22.5566 0.767912 22.5571C0.767389 22.5574 0.766987 22.5576 0.766708 22.5578C0.766568 22.5578 0.766459 22.5579 0.76638 22.5579C0.766341 22.558 0.766305 22.558 0.766286 22.558C0.766257 22.558 0.766237 22.558 1 23ZM17.6769 15.6782C21.0964 14.1963 24.8933 12.629 28.9134 11.098L28.5575 10.1634C24.5213 11.7006 20.7103 13.2737 17.2792 14.7607L17.6769 15.6782ZM40.3628 7.08824C44.2291 5.86189 48.1597 4.75536 52.0425 3.85666L51.8171 2.88241C47.9036 3.78819 43.9471 4.90224 40.0604 6.13504L40.3628 7.08824ZM63.9569 1.81799C66.0218 1.61109 68.032 1.5 69.9674 1.5V0.5C67.9941 0.5 65.9504 0.613241 63.8572 0.822975L63.9569 1.81799ZM69.9674 1.5C71.9234 1.5 73.9611 1.61346 76.0595 1.82461L76.1597 0.829631C74.0331 0.615644 71.9615 0.5 69.9674 0.5V1.5ZM88.1397 3.88709C92.0717 4.79142 96.0602 5.90301 99.9887 7.13359L100.288 6.17932C96.3395 4.94256 92.3256 3.82371 88.3638 2.91253L88.1397 3.88709ZM111.614 11.1452C115.697 12.6743 119.557 14.2384 123.036 15.7163L123.427 14.7959C119.937 13.3132 116.063 11.7437 111.965 10.2087L111.614 11.1452ZM134.252 20.7467C135.992 21.5699 137.373 22.2448 138.318 22.7137C138.791 22.9482 139.154 23.1311 139.4 23.2553C139.522 23.3174 139.615 23.3648 139.678 23.3966C139.709 23.4125 139.732 23.4245 139.748 23.4325C139.756 23.4365 139.761 23.4395 139.765 23.4415C139.767 23.4425 139.769 23.4432 139.77 23.4437C139.77 23.444 139.77 23.4441 139.771 23.4442C139.771 23.4443 139.771 23.4443 139.771 23.4444C139.771 23.4444 139.771 23.4444 139.771 23.4444C139.771 23.4444 139.771 23.4444 140 23C140.229 22.5556 140.229 22.5556 140.229 22.5556C140.229 22.5556 140.229 22.5556 140.229 22.5555C140.229 22.5555 140.229 22.5554 140.229 22.5554C140.228 22.5552 140.228 22.555 140.227 22.5547C140.226 22.5542 140.225 22.5534 140.223 22.5523C140.219 22.5502 140.213 22.5471 140.205 22.5429C140.188 22.5347 140.164 22.5224 140.133 22.5062C140.069 22.4738 139.975 22.4258 139.851 22.3631C139.604 22.2378 139.238 22.0536 138.763 21.8179C137.812 21.3465 136.426 20.6688 134.68 19.8427L134.252 20.7467ZM140.304 23.9526C140.83 23.7844 141.121 23.2217 140.953 22.6956L138.213 14.1227C138.045 13.5966 137.482 13.3064 136.956 13.4745C136.43 13.6426 136.14 14.2053 136.308 14.7314L138.743 22.3518L131.123 24.7868C130.597 24.9549 130.306 25.5177 130.474 26.0438C130.643 26.5698 131.205 26.86 131.731 26.6919L140.304 23.9526ZM1 23C1.46753 23.884 1.46751 23.884 1.4675 23.884C1.4675 23.884 1.4675 23.884 1.46752 23.884C1.46754 23.884 1.4676 23.8839 1.46769 23.8839C1.46786 23.8838 1.46816 23.8836 1.46858 23.8834C1.46942 23.883 1.47075 23.8823 1.47256 23.8813C1.47619 23.8794 1.48176 23.8765 1.48925 23.8725C1.50423 23.8646 1.5269 23.8527 1.55713 23.8369C1.61758 23.8052 1.70822 23.7579 1.82791 23.6957C2.06728 23.5715 2.42278 23.3883 2.88519 23.1532C3.81002 22.6832 5.16229 22.0062 6.86802 21.1806L5.99664 19.3804C4.2782 20.2122 2.9143 20.8949 1.97901 21.3703C1.51135 21.608 1.15081 21.7938 0.906648 21.9206C0.784564 21.9839 0.69157 22.0325 0.628823 22.0654C0.597449 22.0818 0.573637 22.0943 0.557531 22.1028C0.549477 22.107 0.543351 22.1103 0.539169 22.1125C0.537077 22.1136 0.535473 22.1144 0.534356 22.115C0.533798 22.1153 0.533361 22.1155 0.533048 22.1157C0.532891 22.1158 0.532764 22.1159 0.532669 22.1159C0.532621 22.1159 0.532572 22.116 0.532548 22.116C0.532507 22.116 0.532474 22.116 1 23ZM17.8757 16.137C21.2894 14.6576 25.0794 13.0932 29.0913 11.5652L28.3795 9.69619C24.3353 11.2364 20.5172 12.8125 17.0804 14.3019L17.8757 16.137ZM40.514 7.56484C44.3701 6.34171 48.2877 5.23895 52.1553 4.34378L51.7043 2.39529C47.7756 3.3046 43.806 4.42242 39.9093 5.65844L40.514 7.56484ZM64.0067 2.3155C66.0575 2.11002 68.0509 2 69.9674 2V0C67.9752 0 65.9147 0.114315 63.8073 0.325466L64.0067 2.3155ZM69.9674 2C71.9043 2 73.9252 2.11236 76.0095 2.32209L76.2097 0.332143C74.069 0.116738 71.9806 0 69.9674 0V2ZM88.0276 4.37437C91.9447 5.27528 95.9206 6.38324 99.8393 7.61073L100.437 5.70218C96.4791 4.46234 92.4526 3.33986 88.4759 2.42525L88.0276 4.37437ZM111.439 11.6134C115.513 13.1396 119.367 14.7009 122.841 16.1765L123.623 14.3357C120.127 12.8507 116.246 11.2784 112.14 9.74048L111.439 11.6134ZM134.038 21.1986C135.775 22.0204 137.153 22.694 138.096 23.1617C138.567 23.3955 138.93 23.5778 139.174 23.7014C139.296 23.7632 139.388 23.8103 139.45 23.8419C139.481 23.8576 139.504 23.8695 139.519 23.8773C139.527 23.8813 139.533 23.8842 139.536 23.8861C139.538 23.8871 139.54 23.8878 139.541 23.8882C139.541 23.8884 139.541 23.8886 139.541 23.8887C139.542 23.8887 139.542 23.8888 139.542 23.8888C139.542 23.8888 139.542 23.8888 139.542 23.8888C139.542 23.8888 139.542 23.8888 140 23C140.458 22.1112 140.458 22.1112 140.458 22.1112C140.458 22.1112 140.458 22.1111 140.458 22.1111C140.458 22.1111 140.458 22.111 140.458 22.1109C140.457 22.1108 140.457 22.1105 140.456 22.1102C140.455 22.1097 140.454 22.1088 140.452 22.1077C140.447 22.1055 140.441 22.1023 140.433 22.0981C140.416 22.0897 140.392 22.0773 140.36 22.061C140.296 22.0283 140.202 21.98 140.077 21.917C139.828 21.7911 139.461 21.6064 138.985 21.37C138.032 20.8974 136.643 20.2183 134.894 19.3908L134.038 21.1986Z" fill="#3E3EF4"/>
</svg>
