<svg width="141" height="27" viewBox="0 0 141 27" fill="none" xmlns="http://www.w3.org/2000/svg">
<path d="M140.152 3.52373C140.415 3.60778 140.56 3.88915 140.476 4.15219L139.107 8.43867C139.023 8.70171 138.741 8.84681 138.478 8.76276C138.215 8.67871 138.07 8.39734 138.154 8.1343L139.372 4.32409L135.561 3.10659C135.298 3.02254 135.153 2.74117 135.237 2.47812C135.321 2.21509 135.603 2.06999 135.866 2.15404L140.152 3.52373ZM1 4C1.23376 3.55801 1.23376 3.55801 1.23376 3.55801C1.23377 3.55802 1.23378 3.55802 1.2338 3.55803C1.23385 3.55806 1.23392 3.5581 1.23403 3.55815C1.23424 3.55826 1.23457 3.55844 1.23502 3.55868C1.23593 3.55916 1.23733 3.5599 1.23921 3.56089C1.24298 3.56288 1.24869 3.56589 1.25632 3.5699C1.27158 3.57794 1.29454 3.59001 1.32505 3.606C1.38608 3.63798 1.47731 3.68563 1.59759 3.74805C1.83816 3.8729 2.19493 4.05681 2.65864 4.2925C3.58609 4.76387 4.94126 5.44231 6.65018 6.2695L6.21449 7.1696C4.49922 6.33933 3.13823 5.65799 2.20556 5.18396C1.73921 4.94694 1.37993 4.76174 1.13696 4.63565C1.01548 4.5726 0.923072 4.52433 0.860899 4.49175C0.829813 4.47546 0.806285 4.4631 0.79046 4.45476C0.782547 4.4506 0.77656 4.44744 0.772517 4.44531C0.770495 4.44424 0.76896 4.44343 0.767912 4.44288C0.767389 4.4426 0.766987 4.44239 0.766708 4.44224C0.766568 4.44217 0.766459 4.44211 0.76638 4.44207C0.766341 4.44205 0.766305 4.44203 0.766286 4.44202C0.766257 4.442 0.766237 4.44199 1 4ZM17.6769 11.3218C21.0964 12.8037 24.8933 14.371 28.9134 15.902L28.5575 16.8366C24.5213 15.2994 20.7103 13.7263 17.2792 12.2393L17.6769 11.3218ZM40.3628 19.9118C44.2291 21.1381 48.1597 22.2446 52.0425 23.1433L51.8171 24.1176C47.9036 23.2118 43.9471 22.0978 40.0604 20.865L40.3628 19.9118ZM63.9569 25.182C66.0218 25.3889 68.032 25.5 69.9674 25.5V26.5C67.9941 26.5 65.9504 26.3868 63.8572 26.177L63.9569 25.182ZM69.9674 25.5C71.9234 25.5 73.9611 25.3865 76.0595 25.1754L76.1597 26.1704C74.0331 26.3844 71.9615 26.5 69.9674 26.5V25.5ZM88.1397 23.1129C92.0717 22.2086 96.0602 21.097 99.9887 19.8664L100.288 20.8207C96.3395 22.0574 92.3256 23.1763 88.3638 24.0875L88.1397 23.1129ZM111.614 15.8548C115.697 14.3257 119.557 12.7616 123.036 11.2837L123.427 12.2041C119.937 13.6868 116.063 15.2563 111.965 16.7913L111.614 15.8548ZM134.252 6.25332C135.992 5.43013 137.373 4.75517 138.318 4.28625C138.791 4.0518 139.154 3.86887 139.4 3.74468C139.522 3.68259 139.615 3.63519 139.678 3.60337C139.709 3.58747 139.732 3.57546 139.748 3.56746C139.756 3.56346 139.761 3.56046 139.765 3.55849C139.767 3.5575 139.769 3.55676 139.77 3.55628C139.77 3.55604 139.77 3.55586 139.771 3.55575C139.771 3.5557 139.771 3.55566 139.771 3.55563C139.771 3.55562 139.771 3.55562 139.771 3.55561C139.771 3.55561 139.771 3.55561 140 4C140.229 4.44439 140.229 4.4444 140.229 4.44442C140.229 4.44443 140.229 4.44445 140.229 4.44447C140.229 4.44451 140.229 4.44456 140.229 4.44464C140.228 4.44478 140.228 4.44499 140.227 4.44527C140.226 4.44582 140.225 4.44662 140.223 4.44768C140.219 4.4498 140.213 4.45293 140.205 4.45707C140.188 4.46535 140.164 4.47763 140.133 4.49382C140.069 4.5262 139.975 4.57418 139.851 4.63686C139.604 4.76222 139.238 4.94637 138.763 5.18207C137.812 5.65348 136.426 6.33117 134.68 7.15726L134.252 6.25332ZM140.304 3.04745C140.83 3.21555 141.121 3.7783 140.953 4.30438L138.213 12.8773C138.045 13.4034 137.482 13.6936 136.956 13.5255C136.43 13.3574 136.14 12.7947 136.308 12.2686L138.743 4.64818L131.123 2.21318C130.597 2.04507 130.306 1.48233 130.474 0.956249C130.643 0.43017 131.205 0.139971 131.731 0.308073L140.304 3.04745ZM1 4C1.46753 3.11602 1.46751 3.11601 1.4675 3.11601C1.4675 3.11601 1.4675 3.11601 1.46752 3.11602C1.46754 3.11603 1.4676 3.11606 1.46769 3.11611C1.46786 3.1162 1.46816 3.11636 1.46858 3.11658C1.46942 3.11702 1.47075 3.11773 1.47256 3.11868C1.47619 3.1206 1.48176 3.12353 1.48925 3.12748C1.50423 3.13536 1.5269 3.14728 1.55713 3.16312C1.61758 3.1948 1.70822 3.24215 1.82791 3.30426C2.06728 3.42848 2.42278 3.61175 2.88519 3.84676C3.81002 4.31681 5.16229 4.9938 6.86802 5.81945L5.99664 7.61964C4.2782 6.78784 2.9143 6.10505 1.97901 5.62969C1.51135 5.39201 1.15081 5.20616 0.906648 5.07944C0.784564 5.01609 0.69157 4.96751 0.628823 4.93463C0.597449 4.91819 0.573637 4.90567 0.557531 4.89719C0.549477 4.89295 0.543351 4.88972 0.539169 4.88752C0.537077 4.88641 0.535473 4.88556 0.534356 4.88498C0.533798 4.88468 0.533361 4.88445 0.533048 4.88428C0.532891 4.8842 0.532764 4.88413 0.532669 4.88408C0.532621 4.88406 0.532572 4.88403 0.532548 4.88402C0.532507 4.884 0.532474 4.88398 1 4ZM17.8757 10.863C21.2894 12.3424 25.0794 13.9068 29.0913 15.4348L28.3795 17.3038C24.3353 15.7636 20.5172 14.1875 17.0804 12.6981L17.8757 10.863ZM40.514 19.4352C44.3701 20.6583 48.2877 21.7611 52.1553 22.6562L51.7043 24.6047C47.7756 23.6954 43.806 22.5776 39.9093 21.3416L40.514 19.4352ZM64.0067 24.6845C66.0575 24.89 68.0509 25 69.9674 25V27C67.9752 27 65.9147 26.8857 63.8073 26.6745L64.0067 24.6845ZM69.9674 25C71.9043 25 73.9252 24.8876 76.0095 24.6779L76.2097 26.6679C74.069 26.8833 71.9806 27 69.9674 27V25ZM88.0276 22.6256C91.9447 21.7247 95.9206 20.6168 99.8393 19.3893L100.437 21.2978C96.4791 22.5377 92.4526 23.6601 88.4759 24.5747L88.0276 22.6256ZM111.439 15.3866C115.513 13.8604 119.367 12.2991 122.841 10.8235L123.623 12.6643C120.127 14.1493 116.246 15.7216 112.14 17.2595L111.439 15.3866ZM134.038 5.80135C135.775 4.9796 137.153 4.30601 138.096 3.83835C138.567 3.60452 138.93 3.4222 139.174 3.2986C139.296 3.2368 139.388 3.18968 139.45 3.15815C139.481 3.14238 139.504 3.13051 139.519 3.12265C139.527 3.11872 139.533 3.1158 139.536 3.11389C139.538 3.11293 139.54 3.11223 139.541 3.11179C139.541 3.11156 139.541 3.1114 139.541 3.11131C139.542 3.11126 139.542 3.11123 139.542 3.11122C139.542 3.11121 139.542 3.11121 139.542 3.11121C139.542 3.11121 139.542 3.11122 140 4C140.458 4.88878 140.458 4.8888 140.458 4.88882C140.458 4.88883 140.458 4.88886 140.458 4.88888C140.458 4.88893 140.458 4.889 140.458 4.88908C140.457 4.88924 140.457 4.88947 140.456 4.88976C140.455 4.89034 140.454 4.89118 140.452 4.89227C140.447 4.89446 140.441 4.89767 140.433 4.90187C140.416 4.91029 140.392 4.92272 140.36 4.93905C140.296 4.97171 140.202 5.01998 140.077 5.08295C139.828 5.20889 139.461 5.39365 138.985 5.62998C138.032 6.10264 136.643 6.78169 134.894 7.60923L134.038 5.80135Z" fill="#3E3EF4"/>
</svg>
