<svg width="8" height="8" viewBox="0 0 8 8" fill="none" xmlns="http://www.w3.org/2000/svg">
<path d="M3.65697 7.27273C3.65697 7.67515 3.3507 8 2.97129 8C2.59188 8 2.28561 7.67515 2.28561 7.27273C2.28561 6.8703 2.59188 6.54545 2.97129 6.54545C3.3507 6.54545 3.65697 6.8703 3.65697 7.27273ZM5.94258 6.54545C5.56316 6.54545 5.25689 6.8703 5.25689 7.27273C5.25689 7.67515 5.56316 8 5.94258 8C6.32199 8 6.62826 7.67515 6.62826 7.27273C6.62826 6.8703 6.32199 6.54545 5.94258 6.54545ZM7.99048 1.90545L7.07624 5.78424C7.05781 5.86328 7.01491 5.93348 6.95441 5.98358C6.89391 6.03369 6.8193 6.06081 6.74254 6.06061H2.17133C2.00676 6.06061 1.86505 5.93455 1.83306 5.76L0.969097 0.727273H0.342841C0.155421 0.727273 0 0.562424 0 0.363636C0 0.164848 0.155421 0 0.342841 0H1.25708C1.42165 0 1.56335 0.126061 1.59535 0.300606L1.79192 1.45455H7.65678C7.70876 1.45478 7.76002 1.46748 7.80672 1.4917C7.85342 1.51591 7.89435 1.55102 7.92645 1.59439C7.95855 1.63777 7.98098 1.68828 7.99207 1.74214C8.00316 1.79601 8.00261 1.85184 7.99048 1.90545ZM7.21794 2.18182H1.91534L2.45474 5.33333H6.47284L7.21794 2.18182Z" fill="black"/>
</svg>
