<svg width="49" height="49" viewBox="0 0 49 49" fill="none" xmlns="http://www.w3.org/2000/svg">
<rect width="49" height="49" rx="7" fill="#392C7D"/>
<path d="M32.4062 12H18.3438C17.0498 12 16 13.0498 16 14.3438V34.6562C16 35.9502 17.0498 37 18.3438 37H32.4062C33.7002 37 34.75 35.9502 34.75 34.6562V14.3438C34.75 13.0498 33.7002 12 32.4062 12ZM32.4062 34.6562H18.3438V14.3438H32.4062V34.6562ZM23.0312 17.4688H27.7188C28.1484 17.4688 28.5 17.1172 28.5 16.6875C28.5 16.2578 28.1484 15.9062 27.7188 15.9062H23.0312C22.6016 15.9062 22.25 16.2578 22.25 16.6875C22.25 17.1172 22.6016 17.4688 23.0312 17.4688ZM25.375 26.0625C27.0986 26.0625 28.5 24.6611 28.5 22.9375C28.5 21.2139 27.0986 19.8125 25.375 19.8125C23.6514 19.8125 22.25 21.2139 22.25 22.9375C22.25 24.6611 23.6514 26.0625 25.375 26.0625ZM21 32.3125H29.75C30.3555 32.3125 30.8438 31.8926 30.8438 31.375V30.4375C30.8438 28.8848 29.374 27.625 27.5625 27.625C27.0352 27.625 26.6494 28.0156 25.375 28.0156C24.0615 28.0156 23.7441 27.625 23.1875 27.625C21.376 27.625 19.9062 28.8848 19.9062 30.4375V31.375C19.9062 31.8926 20.3945 32.3125 21 32.3125Z" fill="white"/>
</svg>
