<svg width="30" height="30" viewBox="0 0 30 30" fill="none" xmlns="http://www.w3.org/2000/svg">
<path d="M9.34221 0H21.5358C26.1809 0 29.9551 3.9 29.9551 8.7V21.3C29.9551 23.6074 29.0681 25.8203 27.4891 27.4518C25.9102 29.0834 23.7687 30 21.5358 30H9.34221C4.69705 30 0.922852 26.1 0.922852 21.3V8.7C0.922852 6.39262 1.80989 4.17974 3.38882 2.54817C4.96776 0.916605 7.10926 0 9.34221 0ZM9.05188 3C7.66591 3 6.33671 3.56893 5.35668 4.58162C4.37665 5.59432 3.82608 6.96783 3.82608 8.4V21.6C3.82608 24.585 6.16317 27 9.05188 27H21.8261C23.212 27 24.5413 26.4311 25.5213 25.4184C26.5013 24.4057 27.0519 23.0322 27.0519 21.6V8.4C27.0519 5.415 24.7148 3 21.8261 3H9.05188ZM23.0599 5.25C23.5412 5.25 24.0027 5.44754 24.343 5.79917C24.6833 6.15081 24.8745 6.62772 24.8745 7.125C24.8745 7.62228 24.6833 8.09919 24.343 8.45083C24.0027 8.80246 23.5412 9 23.0599 9C22.5787 9 22.1172 8.80246 21.7769 8.45083C21.4366 8.09919 21.2454 7.62228 21.2454 7.125C21.2454 6.62772 21.4366 6.15081 21.7769 5.79917C22.1172 5.44754 22.5787 5.25 23.0599 5.25ZM15.439 7.5C17.3639 7.5 19.2101 8.29018 20.5712 9.6967C21.9324 11.1032 22.697 13.0109 22.697 15C22.697 16.9891 21.9324 18.8968 20.5712 20.3033C19.2101 21.7098 17.3639 22.5 15.439 22.5C13.514 22.5 11.6679 21.7098 10.3068 20.3033C8.9456 18.8968 8.18092 16.9891 8.18092 15C8.18092 13.0109 8.9456 11.1032 10.3068 9.6967C11.6679 8.29018 13.514 7.5 15.439 7.5ZM15.439 10.5C14.284 10.5 13.1763 10.9741 12.3596 11.818C11.543 12.6619 11.0841 13.8065 11.0841 15C11.0841 16.1935 11.543 17.3381 12.3596 18.182C13.1763 19.0259 14.284 19.5 15.439 19.5C16.594 19.5 17.7016 19.0259 18.5183 18.182C19.335 17.3381 19.7938 16.1935 19.7938 15C19.7938 13.8065 19.335 12.6619 18.5183 11.818C17.7016 10.9741 16.594 10.5 15.439 10.5Z" fill="black"/>
</svg>
