<svg width="171" height="170" viewBox="0 0 171 170" fill="none" xmlns="http://www.w3.org/2000/svg">
<circle cx="85.6797" cy="85" r="85" fill="#F2F2F2"/>
<path d="M82.7456 40.4016C72.5695 42.8649 67.9815 52.3076 71.6284 63.2166C74.393 71.1931 80.3928 77.2927 85.569 77.2927C89.1571 77.2927 91.0394 76.4716 93.9805 73.5977C98.6273 69.0817 101.745 61.8677 101.745 55.768C101.745 45.9147 92.0394 38.1142 82.7456 40.4016ZM77.8046 50.5481C80.0398 52.7768 83.5103 53.422 90.7453 53.0114C96.5098 52.7182 97.1568 52.7768 98.2156 53.8325C100.568 56.1786 99.0979 63.7445 95.2745 68.9644C89.4512 76.9995 82.0986 76.8235 76.5106 68.4365C74.1577 64.9175 72.3343 60.1081 72.3343 57.7035C72.3931 55.4161 75.2165 49.1405 76.1576 49.1405C76.2753 49.1405 77.04 49.7857 77.8046 50.5481Z" fill="black"/>
<path d="M70.7472 75.7677C67.5709 76.7648 64.8651 78.4656 62.5711 80.929C60.63 82.9231 58.2183 87.0286 58.2183 88.2603C58.2183 88.6708 57.1595 89.5506 55.9243 90.1371C52.2186 92.0726 52.1597 92.7177 55.042 109.081C56.3949 117.058 57.8066 124.096 58.1595 124.741C58.5712 125.386 59.3359 126.207 59.9829 126.559C61.5711 127.38 110.04 127.38 111.922 126.5C112.746 126.148 113.628 125.269 113.981 124.565C114.275 123.861 115.687 116.764 117.039 108.729C119.863 92.4831 119.863 92.0139 116.04 90.1957C114.804 89.6092 113.981 88.6708 113.569 87.2632C112.04 82.2193 105.158 76.3542 99.6872 75.3572C98.1579 75.0639 97.7461 75.2985 96.8638 76.7648C93.5698 82.5712 77.7469 82.5125 75.1588 76.6475C74.3353 74.7707 74.2177 74.712 70.7472 75.7677ZM117.392 93.1283C117.981 94.3013 117.745 96.5886 116.157 105.738C115.04 111.838 113.981 118.289 113.746 120.049C113.451 122.219 112.922 123.685 111.981 124.624L110.628 125.973H86.5113C61.8064 125.973 59.7477 125.797 59.1595 123.685C58.6889 122.219 54.1008 95.5329 54.1008 94.4772C54.1008 93.9494 54.5126 93.011 55.1008 92.4245C55.9831 91.4274 57.5713 91.3687 86.3937 91.486L116.745 91.662L117.392 93.1283Z" fill="black"/>
<path d="M78.9448 102.022C76.2369 104.839 74 107.774 74 108.361C74 110.826 80.1221 116.813 82.5945 116.813C84.8314 116.813 84.5959 116.344 80.7108 112.352L76.4724 108.009L81.1817 102.374C87.186 95.448 85.5378 95.0958 78.9448 102.022Z" fill="#3E3EF4"/>
<path d="M85.8914 99.6738C84.8318 100.848 84.9495 101.552 86.3623 102.726C87.8928 104.017 87.8928 104.487 86.7155 105.191C85.7736 105.778 87.7751 106.248 91.5425 106.248H98.0178L94.0149 102.139C89.6588 97.6782 88.0106 97.2086 85.8914 99.6738Z" fill="#3E3EF4"/>
<path d="M86.9514 115.052C83.5372 118.573 83.3017 119.16 85.0677 119.865C86.5982 120.452 88.5997 119.278 92.0139 115.756C96.7232 111.06 96.8409 110.943 93.8976 110.943C92.0139 110.943 89.4238 112.469 86.9514 115.052Z" fill="#3E3EF4"/>
<path d="M59.3945 129.198C59.3945 129.961 62.5121 130.078 86.0405 129.961C103.275 129.844 112.628 129.55 112.628 129.198C112.628 128.847 103.275 128.553 86.0405 128.436C62.5121 128.319 59.3945 128.436 59.3945 129.198Z" fill="black"/>
<circle cx="21" cy="24" r="20" fill="black"/>
<path d="M20.578 32.242C19.0087 32.242 17.6593 31.7727 16.53 30.834C15.4153 29.8807 14.8287 28.5827 14.77 26.94H17.762C17.8353 27.688 18.1213 28.2673 18.62 28.678C19.1333 29.074 19.786 29.272 20.578 29.272C21.282 29.272 21.8467 29.096 22.272 28.744C22.712 28.392 22.9393 27.9153 22.954 27.314C22.954 26.654 22.7267 26.1407 22.272 25.774C21.8173 25.4073 21.194 25.224 20.402 25.224H19.082V22.76H20.27C20.9887 22.76 21.5387 22.5913 21.92 22.254C22.3013 21.9167 22.4993 21.462 22.514 20.89C22.5287 20.362 22.338 19.9293 21.942 19.592C21.5607 19.2547 21.0767 19.086 20.49 19.086C19.786 19.086 19.2067 19.2913 18.752 19.702C18.2973 20.1127 18.0773 20.6407 18.092 21.286H15.056C15.056 19.7313 15.5987 18.4847 16.684 17.546C17.7693 16.5927 19.038 16.116 20.49 16.116C22.0447 16.116 23.2767 16.556 24.186 17.436C25.0953 18.3013 25.55 19.372 25.55 20.648C25.55 21.3667 25.3813 22.0267 25.044 22.628C24.7067 23.2147 24.296 23.6767 23.812 24.014C24.4427 24.3073 24.9633 24.762 25.374 25.378C25.7847 25.994 25.99 26.72 25.99 27.556C25.99 28.9347 25.4913 30.064 24.494 30.944C23.4967 31.8093 22.1913 32.242 20.578 32.242Z" fill="white"/>
</svg>
