<svg width="49" height="49" viewBox="0 0 49 49" fill="none" xmlns="http://www.w3.org/2000/svg">
<rect width="49" height="49" rx="7" fill="#392C7D"/>
<path d="M15.3287 31.3184L22.7458 23.9014C22.0728 22.4966 21.8524 20.9177 22.1149 19.3823C22.3775 17.847 23.11 16.431 24.2114 15.3296C27.1516 12.3894 31.9305 12.3894 34.8706 15.3296C37.8108 18.2698 37.8108 23.0486 34.8706 25.9888C33.7693 27.0902 32.3532 27.8228 30.8179 28.0853C29.2826 28.3478 27.7036 28.1274 26.2988 27.4544L25.9879 27.7653V31.3184L22.4349 31.3184L22.4349 34.8715L15.2932 34.8359L15.3287 31.3184ZM32.2058 23.324C33.6715 21.8584 33.6715 19.46 32.2058 17.9944C30.7402 16.5288 28.3419 16.5288 26.8762 17.9944C25.4106 19.46 25.4106 21.8584 26.8762 23.324C28.3419 24.7896 30.7402 24.7896 32.2058 23.324Z" fill="white"/>
</svg>
