<svg width="31" height="30" viewBox="0 0 31 30" fill="none" xmlns="http://www.w3.org/2000/svg">
<path d="M27.6217 0C28.5058 0 29.3536 0.351189 29.9788 0.976311C30.6039 1.60143 30.9551 2.44928 30.9551 3.33333V26.6667C30.9551 27.5507 30.6039 28.3986 29.9788 29.0237C29.3536 29.6488 28.5058 30 27.6217 30H4.28841C3.40436 30 2.55651 29.6488 1.93139 29.0237C1.30627 28.3986 0.955078 27.5507 0.955078 26.6667V3.33333C0.955078 2.44928 1.30627 1.60143 1.93139 0.976311C2.55651 0.351189 3.40436 0 4.28841 0H27.6217ZM26.7884 25.8333V17C26.7884 15.559 26.216 14.177 25.197 13.1581C24.1781 12.1391 22.7961 11.5667 21.3551 11.5667C19.9384 11.5667 18.2884 12.4333 17.4884 13.7333V11.8833H12.8384V25.8333H17.4884V17.6167C17.4884 16.3333 18.5217 15.2833 19.8051 15.2833C20.4239 15.2833 21.0174 15.5292 21.455 15.9668C21.8926 16.4043 22.1384 16.9978 22.1384 17.6167V25.8333H26.7884ZM7.42174 9.26667C8.16435 9.26667 8.87654 8.97167 9.40164 8.44657C9.92675 7.92146 10.2217 7.20927 10.2217 6.46667C10.2217 4.91667 8.97174 3.65 7.42174 3.65C6.67472 3.65 5.95829 3.94675 5.43006 4.47498C4.90183 5.00321 4.60508 5.71964 4.60508 6.46667C4.60508 8.01667 5.87174 9.26667 7.42174 9.26667ZM9.73841 25.8333V11.8833H5.12174V25.8333H9.73841Z" fill="black"/>
</svg>
