<svg width="52" height="68" viewBox="0 0 52 68" fill="none" xmlns="http://www.w3.org/2000/svg">
<path d="M3.25 0H48.75C49.612 0 50.4386 0.34241 51.0481 0.951903C51.6576 1.5614 52 2.38805 52 3.25V65.4647C52.0004 65.7553 51.9228 66.0407 51.7754 66.2911C51.628 66.5415 51.4162 66.7478 51.162 66.8885C50.9077 67.0292 50.6204 67.0992 50.33 67.0912C50.0395 67.0831 49.7565 66.9973 49.5105 66.8427L26 52.0975L2.4895 66.8395C2.2437 66.9939 1.96101 67.0797 1.67083 67.0879C1.38065 67.0961 1.09358 67.0264 0.839459 66.886C0.585338 66.7457 0.373447 66.5399 0.225819 66.2899C0.0781911 66.04 0.00021603 65.755 0 65.4647V3.25C0 2.38805 0.34241 1.5614 0.951904 0.951903C1.5614 0.34241 2.38805 0 3.25 0ZM47.3992 5.12116L4.41676 5.23386V31.6897V59.9441L26 46.8839L47.3992 59.9441V5.12116Z" fill="#FF4667"/>
<path d="M16.0097 17.6125C12.031 21.4227 8.74414 25.3916 8.74414 26.1854C8.74414 29.5194 17.7396 37.616 21.3724 37.616C24.6593 37.616 24.3133 36.981 18.6046 31.5832L12.3769 25.7092L19.2966 18.0888C28.1191 8.72201 25.6972 8.24573 16.0097 17.6125Z" fill="#392C7D"/>
<path d="M25.7754 14.5384C24.2456 16.083 24.4156 17.0097 26.4554 18.5543C28.6651 20.2533 28.6651 20.8711 26.9653 21.7979C25.6055 22.5702 28.4951 23.188 33.9344 23.188H43.2833L37.504 17.782C31.2148 11.9126 28.8351 11.2948 25.7754 14.5384Z" fill="#FF4667"/>
<path d="M27.4184 34.9762C22.5498 39.7802 22.214 40.5809 24.7322 41.5417C26.9147 42.3424 29.7687 40.7411 34.6373 35.937C41.3525 29.5316 41.5204 29.3714 37.3234 29.3714C34.6373 29.3714 30.9439 31.4532 27.4184 34.9762Z" fill="#FF4667"/>
</svg>
