<svg width="42" height="45" viewBox="0 0 42 45" fill="none" xmlns="http://www.w3.org/2000/svg">
<path d="M8.77197 9.88526C3.96827 15.431 0 21.2078 0 22.3632C0 27.2158 10.8605 39.0005 15.2465 39.0005C19.2148 39.0005 18.7971 38.0762 11.9048 30.2197L4.38599 21.67L12.7402 10.5785C23.3919 -3.05484 20.4679 -3.74807 8.77197 9.88526Z" fill="#392C7D"/>
<path d="M20.5616 5.41051C18.7146 7.65863 18.9199 9.00751 21.3825 11.2556C24.0504 13.7286 24.0504 14.6278 21.9982 15.9767C20.3564 17.1008 23.8452 18 30.4122 18H41.6993L34.7218 10.1316C27.1287 1.5887 24.2556 0.689453 20.5616 5.41051Z" fill="#FF4667"/>
<path d="M22.5465 35.1576C16.6686 42.15 16.2632 43.3154 19.3035 44.7138C21.9384 45.8792 25.3841 43.5484 31.2621 36.5561C39.3696 27.233 39.5723 26.9999 34.5051 26.9999C31.2621 26.9999 26.803 30.0299 22.5465 35.1576Z" fill="#FF4667"/>
</svg>
