<svg width="28" height="22" viewBox="0 0 28 22" fill="none" xmlns="http://www.w3.org/2000/svg">
<path d="M2.8 22C2.03 22 1.37107 21.731 0.8232 21.1929C0.2744 20.6539 0 20.0063 0 19.25V2.75C0 1.99375 0.2744 1.34658 0.8232 0.8085C1.37107 0.2695 2.03 0 2.8 0H25.2C25.97 0 26.6294 0.2695 27.1782 0.8085C27.7261 1.34658 28 1.99375 28 2.75V19.25C28 20.0063 27.7261 20.6539 27.1782 21.1929C26.6294 21.731 25.97 22 25.2 22H2.8ZM14 12.1344C14.1167 12.1344 14.2389 12.117 14.3668 12.0821C14.4956 12.0482 14.6183 11.9969 14.735 11.9281L24.64 5.84375C24.8267 5.72917 24.9667 5.58617 25.06 5.41475C25.1533 5.24242 25.2 5.05312 25.2 4.84688C25.2 4.38854 25.0017 4.04479 24.605 3.81563C24.2083 3.58646 23.8 3.59792 23.38 3.85L14 9.625L4.62 3.85C4.2 3.59792 3.79167 3.59196 3.395 3.83213C2.99833 4.07321 2.8 4.41146 2.8 4.84688C2.8 5.07604 2.84667 5.27633 2.94 5.44775C3.03333 5.62008 3.17333 5.75208 3.36 5.84375L13.265 11.9281C13.3817 11.9969 13.5044 12.0482 13.6332 12.0821C13.7611 12.117 13.8833 12.1344 14 12.1344Z" fill="#F8F4FF"/>
</svg>
