<svg width="27" height="27" viewBox="0 0 27 27" fill="none" xmlns="http://www.w3.org/2000/svg">
<path d="M25.425 27C25.675 27 25.9375 26.994 26.2125 26.982C26.4875 26.969 26.75 26.95 27 26.925V18.15L19.5 16.65L15.15 21C13.25 19.85 11.506 18.4875 9.918 16.9125C8.331 15.3375 7.0125 13.65 5.9625 11.85L10.2375 7.5375L8.85 0H0.0749989C0.0249996 0.25 0 0.5125 0 0.7875V1.575C0 4.8 0.719 7.9435 2.157 11.0055C3.594 14.0685 5.494 16.7875 7.857 19.1625C10.219 21.5375 12.931 23.4375 15.993 24.8625C19.056 26.2875 22.2 27 25.425 27Z" fill="#F8F4FF"/>
</svg>
