<svg width="37" height="30" viewBox="0 0 37 30" fill="none" xmlns="http://www.w3.org/2000/svg">
<path d="M36.9231 3.52941C35.5641 4.14706 34.0991 4.55294 32.5813 4.74706C34.1344 3.81176 35.3346 2.32941 35.8994 0.547059C34.4345 1.42941 32.8107 2.04706 31.0987 2.4C29.7044 0.882353 27.7453 0 25.5214 0C21.3737 0 17.985 3.38824 17.985 7.57059C17.985 8.17059 18.0556 8.75294 18.1791 9.3C11.8959 8.98235 6.30093 5.96471 2.57685 1.39412C1.92381 2.50588 1.55317 3.81176 1.55317 5.18824C1.55317 7.81765 2.87689 10.1471 4.92425 11.4706C3.67113 11.4706 2.50625 11.1176 1.48257 10.5882V10.6412C1.48257 14.3118 4.09472 17.3824 7.55405 18.0706C6.44341 18.3745 5.27742 18.4168 4.14767 18.1941C4.62705 19.6985 5.56588 21.0148 6.83221 21.9581C8.09854 22.9014 9.62868 23.4242 11.2075 23.4529C8.53119 25.5714 5.2137 26.7164 1.80026 26.7C1.20018 26.7 0.600088 26.6647 0 26.5941C3.35343 28.7471 7.34226 30 11.6135 30C25.5214 30 33.1637 18.4588 33.1637 8.45294C33.1637 8.11765 33.1637 7.8 33.1461 7.46471C34.6286 6.40588 35.8994 5.06471 36.9231 3.52941Z" fill="black"/>
</svg>
