<svg width="49" height="49" viewBox="0 0 49 49" fill="none" xmlns="http://www.w3.org/2000/svg">
<rect width="49" height="49" rx="7" fill="#392C7D"/>
<path d="M22 27H27V24.5H22V27ZM22 23.25H32V20.75H22V23.25ZM22 19.5H32V17H22V19.5ZM19.5 32C18.8125 32 18.2242 31.7554 17.735 31.2663C17.245 30.7763 17 30.1875 17 29.5V14.5C17 13.8125 17.245 13.2237 17.735 12.7337C18.2242 12.2446 18.8125 12 19.5 12H34.5C35.1875 12 35.7763 12.2446 36.2663 12.7337C36.7554 13.2237 37 13.8125 37 14.5V29.5C37 30.1875 36.7554 30.7763 36.2663 31.2663C35.7763 31.7554 35.1875 32 34.5 32H19.5ZM19.5 29.5H34.5V14.5H19.5V29.5ZM14.5 37C13.8125 37 13.2242 36.7554 12.735 36.2663C12.245 35.7763 12 35.1875 12 34.5V17H14.5V34.5H32V37H14.5Z" fill="white"/>
</svg>
