<svg width="49" height="49" viewBox="0 0 49 49" fill="none" xmlns="http://www.w3.org/2000/svg">
<rect width="49" height="49" rx="7" fill="#392C7D"/>
<path d="M25.7059 17.8824H13.9412C13.1611 17.8824 12.413 18.1922 11.8615 18.7438C11.3099 19.2954 11 20.0435 11 20.8235V26.7059C11 27.4859 11.3099 28.234 11.8615 28.7856C12.413 29.3372 13.1611 29.6471 13.9412 29.6471H15.4118V35.5294C15.4118 35.9194 15.5667 36.2935 15.8425 36.5693C16.1183 36.8451 16.4923 37 16.8824 37H19.8235C20.2136 37 20.5876 36.8451 20.8634 36.5693C21.1392 36.2935 21.2941 35.9194 21.2941 35.5294V29.6471H25.7059L33.0588 35.5294V12L25.7059 17.8824ZM30.1176 29.0588L27.1765 26.7059H13.9412V20.8235H27.1765L30.1176 18.4706V29.0588ZM39.6765 23.7647C39.6765 26.2794 38.2647 28.5588 36 29.6471V17.8824C38.25 18.9853 39.6765 21.2647 39.6765 23.7647Z" fill="white"/>
</svg>
